<?xml version="1.0" standalone="no"?><!DOCTYPE svg PUBLIC "-//W3C//DTD SVG 1.1//EN" "http://www.w3.org/Graphics/SVG/1.1/DTD/svg11.dtd"><svg t="1659147174945" class="icon" viewBox="0 0 1024 1024" version="1.1" xmlns="http://www.w3.org/2000/svg" p-id="4072" xmlns:xlink="http://www.w3.org/1999/xlink" width="200" height="200"><defs><style type="text/css"></style></defs><path d="M1024 512c0 282.767-229.242 512-512 512C229.233 1024 0 794.767 0 512S229.233 0 512 0c282.758 0 512 229.233 512 512z" fill="#EEF5FF" p-id="4073"></path><path d="M868.52 804.31s-4.256 0.067-5.098 0.067c-5.17 0-14.062-0.197-25.765-0.594-11.642-0.466-26.246-1.26-42.704-2.717-16.441-1.357-34.904-3.346-54.457-6.226-19.57-2.851-40.3-6.56-61.193-11.458-5.131-1.191-10.15-2.219-14.984-3.047a241.591 241.591 0 0 0-14.138-2.054c-4.59-0.528-9.025-0.926-13.297-1.192-4.257-0.298-8.412-0.396-12.433-0.396-10.629 0-20.268 0.729-28.83 2.086-8.576 1.292-16.06 3.08-22.547 5.064a147.545 147.545 0 0 0-16.24 6.229c-4.33 2.086-7.67 3.975-10.041 5.463-0.297 0.199-0.524 0.365-0.828 0.564-0.211 0.132-0.408 0.232-0.594 0.362v0.464l9.869 0.201 336.262 8.338-22.982-1.154z" fill="#125998" p-id="4074"></path><path d="M891.502 805.465l-13.546-525.412-23.078-0.597L868.52 804.31zM156.789 802.488l15.928-524.854-23.231 0.546-16.987 525.366z" fill="#1F95FF" p-id="4075"></path><path d="M132.499 803.546l337.322-6.62 9.915-0.197v-0.598c-0.129-0.065-0.312-0.197-0.515-0.297-0.259-0.167-0.56-0.365-0.794-0.53-2.385-1.522-5.693-3.444-10.047-5.498-4.421-2.019-9.785-4.271-16.259-6.292-6.413-2.051-13.928-3.873-22.437-5.231-8.563-1.29-18.1-2.12-28.744-2.187-4.008 0-8.128 0.1-12.402 0.33-4.29 0.268-8.694 0.6-13.329 1.094-4.505 0.565-9.251 1.159-14.124 2.021-4.846 0.828-9.898 1.82-14.979 2.981-20.98 4.767-41.694 8.377-61.23 11.159a902.926 902.926 0 0 1-54.541 5.96c-16.472 1.356-30.998 2.054-42.719 2.45-11.689 0.396-20.564 0.465-25.713 0.432-0.813 0-1.575 0-2.205-0.035h-2.91l-24.289 1.058zM509.012 789.178a63.973 63.973 0 0 0-6.808 0.465c-3.22 0.363-6.286 0.957-8.99 1.686-2.749 0.729-5.133 1.592-7.2 2.552-2.019 0.961-3.692 2.087-4.833 3.277-0.132-0.132-0.367-0.231-0.585-0.394-0.143-0.102-0.358-0.302-0.645-0.432-0.051-0.067-0.148-0.101-0.215-0.201v0.598c0.516 0.297 1.112 0.695 1.688 0.959h0.101c0.018 0.033 0.018 0.066 0.066 0.066 0.527 0.299 1.189 0.596 1.824 0.863h0.018c0.68 0.33 1.341 0.594 2.068 0.891 0.745 0.267 1.475 0.498 2.204 0.764a52.925 52.925 0 0 0 5.44 1.522h0.067c1.872 0.499 3.909 0.863 5.96 1.159h0.033c2.071 0.364 4.195 0.629 6.432 0.729h0.09c1.08 0.102 2.144 0.102 3.266 0.166 1.143 0.032 2.335 0.132 3.577 0.132 1.405 0 2.812-0.066 4.141-0.161 0.938-0.035 1.836 0 2.714-0.104 2.235-0.1 4.389-0.33 6.473-0.66 2.1-0.333 4.061-0.665 5.994-1.126h0.016c1.892-0.466 3.76-0.931 5.452-1.491 0.744-0.232 1.506-0.531 2.184-0.796h0.084c0.713-0.296 1.372-0.594 2.05-0.827a26.951 26.951 0 0 0 1.855-0.928c0.031-0.031 0.078-0.031 0.13-0.065a14.545 14.545 0 0 0 1.708-0.896v-0.464a0.512 0.512 0 0 1-0.184 0.134c-0.21 0.133-0.409 0.266-0.611 0.43-0.202 0.132-0.395 0.265-0.51 0.398-1.199-1.26-2.832-2.318-4.841-3.344-2.017-0.994-4.456-1.889-7.183-2.584-2.747-0.762-5.813-1.357-9.092-1.787a88.5 88.5 0 0 0-6.172-0.498 86.117 86.117 0 0 0-4.178-0.102h-0.166c-1.188 0-2.327 0.035-3.422 0.069" fill="#125998" p-id="4076"></path><path d="M173.182 276.755c-0.032 0-0.066 0.035-0.136 0.085-0.064 0-0.083 0-0.182 0.066h-0.017a0.455 0.455 0 0 1-0.113 0.05l-0.018 0.678-15.928 524.854c0.051-0.065 0.249-0.162 0.48-0.23l15.914-525.503z" fill="#E6E6E6" p-id="4077"></path><path d="M211.711 249.567c-0.22 0.25-0.5 0.515-0.73 0.796-0.362 0.364-0.647 0.71-0.995 1.075-0.113 0.167-0.267 0.281-0.442 0.432-1.229 1.323-2.602 2.633-3.979 3.858-0.033 0.05-0.064 0.099-0.128 0.116-0.135 0.149-0.286 0.249-0.414 0.365-0.779 0.678-1.54 1.374-2.389 2.021-0.541 0.479-1.075 0.877-1.604 1.323-0.2 0.133-0.394 0.299-0.563 0.433-0.165 0.098-0.314 0.231-0.496 0.313a105.023 105.023 0 0 1-4.487 3.345c-0.077 0.035-0.181 0.115-0.249 0.149-0.411 0.281-0.813 0.562-1.224 0.846-0.612 0.429-1.192 0.842-1.81 1.223-0.078 0.051-0.195 0.116-0.275 0.199-0.417 0.265-0.779 0.481-1.196 0.713-0.43 0.297-0.889 0.63-1.354 0.926a1.458 1.458 0 0 0-0.431 0.267c-0.135 0.066-0.229 0.149-0.332 0.198-0.381 0.25-0.745 0.447-1.094 0.679a40.79 40.79 0 0 1-1.689 0.993c-0.095 0.083-0.25 0.165-0.363 0.247-0.382 0.233-0.781 0.432-1.127 0.647-0.529 0.296-0.993 0.58-1.488 0.86-0.046 0.035-0.182 0.118-0.301 0.199-0.262 0.132-0.49 0.233-0.729 0.398-0.728 0.397-1.406 0.745-2.05 1.093-0.103 0.132-0.302 0.215-0.446 0.25-0.183 0.099-0.298 0.197-0.517 0.33-0.229 0.067-0.494 0.249-0.678 0.364-0.378 0.183-0.628 0.348-0.975 0.465-0.167 0.097-0.347 0.213-0.516 0.313-0.183 0.1-0.328 0.18-0.491 0.281a0.394 0.394 0 0 0-0.205 0.084c-0.496 0.28-1.006 0.499-1.37 0.695-0.498 0.215-0.848 0.414-1.144 0.549-0.117 0.063-0.218 0.08-0.248 0.145L157.27 802.258c0.513-0.229 8.355-3.368 20.937-11.564 12.582-8.197 20.933-15.268 21.446-15.823l14.228-528.033c-0.697 0.908-1.392 1.821-2.17 2.729zM868.52 804.31l-13.642-524.854v-0.711s-11.021-5.266-20.234-11.775c-9.214-6.506-20.814-18.578-20.814-18.578l11.992 528.067s6.297 7.385 16.489 13.811c10.191 6.425 26.209 14.04 26.209 14.04z" fill="#BFBFBF" p-id="4078"></path><path d="M809.658 248.212l13.994 524.706c-1.093 0.197-4.691 0.365-6.441 0.432a79.875 79.875 0 0 1-6.047 0.297c-0.961 0.066-5.598 0.165-6.953 0.165h-11.94c-1.507 0-7.883-0.099-7.883-0.099s9.094 1.061 13.695 1.424c0 0 4.422 0.33 6.51 0.463 0.084 0 5.678 0.365 6.523 0.365 0.148 0 12.219 0.461 12.567 0.461 0.265 0 2.137 0.033 2.137 0.033l-11.992-528.067-4.17-0.18zM213.88 246.837L199.652 774.87l6.985-0.165s6.546-0.23 7.52-0.33c1.026 0 5.149-0.201 6.146-0.266 0.199 0 7.004-0.463 7.004-0.463 2.301-0.166 4.583-0.363 6.902-0.595 0.017 0 6.176-0.663 6.857-0.796-0.084 0-3.165 0.065-3.91 0.065-1.108 0.032-2.481 0.032-4.023 0.032-1.489 0-3.162 0.035-4.935 0-2.236 0-4.601 0-6.951-0.032-2.403-0.065-4.753-0.099-6.973-0.165-2.184-0.066-4.289-0.2-6.06-0.33a46.969 46.969 0 0 1-4.355-0.531l14.007-524.542-3.986 0.085z" fill="#D9D9D9" p-id="4079"></path><path d="M429.544 219.361c33.53 3.474 37.828 8.621 49.763 13.5 8.258 3.375 27.361 15.344 30.399 18.68 3.039 3.335 3.576 5.496 3.962 6.572l-1.166 527.222c-1.49-3.973-2.945-5.165-11.72-12.051-8.774-6.89-38.803-15.607-49.805-18.018-11.001-2.407-24.598-4.18-49.838-4.7-25.244-0.522-52.063 6.491-53.837 6.832-22.604 4.334-54.587 9.318-67.557 11.017-13.994 1.828-50.836 3.078-51.533 3.18l-24.536-0.102L217.83 243.21l47.223-1.077 30.98-2.98 53.448-9.653c0.001-0.001 46.533-13.618 80.063-10.139z" fill="#FFFFFF" p-id="4080"></path><path d="M296.034 370.292l53.448-9.654s46.531-13.617 80.062-10.14c33.53 3.476 37.828 8.623 49.763 13.501a49.21 49.21 0 0 1 2.295 1.027l0.014-5.956a49.906 49.906 0 0 0-2.309-1.033c-11.935-4.876-16.232-10.025-49.763-13.499-33.53-3.479-80.062 10.138-80.062 10.138l-53.448 9.653-30.98 2.981-22.204 0.509-0.161 5.962 22.365-0.509 30.98-2.98zM349.482 318.914l-47.934 8.657-0.164 5.989 48.098-8.684s36.913-10.805 68.675-10.711l0.016-5.96c-31.767-0.098-68.691 10.709-68.691 10.709zM296.034 407.311l53.448-9.654s46.531-13.621 80.062-10.144c33.53 3.48 37.828 8.627 49.763 13.504 0.691 0.282 1.465 0.629 2.295 1.023l0.014-5.954a44.86 44.86 0 0 0-2.309-1.03c-11.935-4.877-16.232-10.023-49.763-13.505-33.53-3.477-80.062 10.146-80.062 10.146l-53.448 9.652-30.98 2.98-22.204 0.503-0.161 5.966 22.365-0.51 30.98-2.977zM296.034 444.325l53.448-9.653s46.531-13.619 80.062-10.142c33.53 3.477 37.828 8.626 49.763 13.503 0.691 0.283 1.465 0.63 2.295 1.025l0.014-5.956a45.741 45.741 0 0 0-2.309-1.03c-11.935-4.876-16.232-10.025-49.763-13.502-33.53-3.475-80.062 10.143-80.062 10.143l-53.448 9.651-30.98 2.981-22.204 0.507-0.161 5.963 22.365-0.508 30.98-2.982zM296.034 481.343l53.448-9.653s46.531-13.62 80.062-10.142c33.53 3.477 37.828 8.625 49.763 13.5 0.691 0.284 1.465 0.632 2.295 1.025l0.014-5.955a47.694 47.694 0 0 0-2.309-1.031c-11.935-4.876-16.232-10.025-49.763-13.502-33.53-3.476-80.062 10.143-80.062 10.143l-53.448 9.654-30.98 2.98-22.204 0.505-0.161 5.964 22.365-0.508 30.98-2.98zM296.034 518.359l53.448-9.654s46.531-13.619 80.062-10.143c33.53 3.479 37.828 8.626 49.763 13.504 0.691 0.282 1.465 0.629 2.295 1.023l0.014-5.955a44.787 44.787 0 0 0-2.309-1.029c-11.935-4.878-16.232-10.025-49.763-13.503-33.53-3.477-80.062 10.142-80.062 10.142l-53.448 9.653-30.98 2.98-22.204 0.509-0.161 5.961 22.365-0.508 30.98-2.98zM296.034 592.391l53.448-9.653s46.531-13.618 80.062-10.142c33.53 3.478 37.828 8.625 49.763 13.502 0.691 0.283 1.465 0.632 2.295 1.024l0.014-5.954a45.741 45.741 0 0 0-2.309-1.03c-11.935-4.877-16.232-10.025-49.763-13.503s-80.062 10.142-80.062 10.142l-53.448 9.653-30.98 2.98-22.204 0.506-0.161 5.965 22.365-0.509 30.98-2.981zM296.034 629.407l53.448-9.653s46.531-13.618 80.062-10.143c33.53 3.479 37.828 8.626 49.763 13.504 0.691 0.282 1.465 0.629 2.295 1.023l0.014-5.955a46.659 46.659 0 0 0-2.309-1.03c-11.935-4.878-16.232-10.024-49.763-13.502s-80.062 10.142-80.062 10.142l-53.448 9.653-30.98 2.98-22.204 0.508-0.161 5.963 22.365-0.51 30.98-2.98zM296.034 666.424l53.448-9.653s46.531-13.618 80.062-10.142 37.828 8.626 49.763 13.501a51.22 51.22 0 0 1 2.295 1.025l0.014-5.956a48.608 48.608 0 0 0-2.309-1.03c-11.935-4.876-16.232-10.025-49.763-13.5-33.53-3.479-80.062 10.141-80.062 10.141l-53.448 9.654-30.98 2.979-22.204 0.505-0.161 5.963 22.365-0.507 30.98-2.98zM296.034 703.441l53.448-9.654s46.531-13.619 80.062-10.142c33.53 3.479 37.828 8.625 49.763 13.504 0.691 0.282 1.465 0.628 2.295 1.022l0.014-5.955a43.87 43.87 0 0 0-2.309-1.028c-11.935-4.878-16.232-10.026-49.763-13.505-33.53-3.477-80.062 10.143-80.062 10.143l-53.448 9.652-30.98 2.98-22.204 0.505-0.161 5.966 22.365-0.51 30.98-2.978zM296.034 555.375l53.448-9.652s46.531-13.619 80.062-10.142c33.53 3.476 37.828 8.623 49.763 13.502 0.691 0.281 1.465 0.63 2.295 1.022l0.014-5.954a45.741 45.741 0 0 0-2.309-1.03c-11.935-4.878-16.232-10.026-49.763-13.502-33.53-3.477-80.062 10.142-80.062 10.142l-53.448 9.652-30.98 2.98-22.204 0.507-0.161 5.965 22.365-0.51 30.98-2.98z" fill="#B3B3B3" p-id="4081"></path><path d="M597.785 219.361c-33.526 3.474-37.832 8.621-49.766 13.5-8.251 3.375-27.36 15.344-30.4 18.68-3.041 3.335-3.575 5.496-3.951 6.572l1.155 527.222c1.491-3.973 2.946-5.165 11.72-12.051 8.782-6.89 38.803-15.607 49.805-18.018 11.006-2.407 24.598-4.18 49.838-4.7 25.242-0.522 52.072 6.491 53.843 6.832 22.602 4.334 54.581 9.318 67.561 11.017 13.986 1.828 33.302 3.484 47.208 4.148 13.908 0.66 28.855 0.355 28.855 0.355L809.496 243.21l-47.224-1.077-30.978-2.98-53.445-9.653c0-0.001-46.539-13.618-80.064-10.139z" fill="#FFFFFF" p-id="4082"></path><path d="M289.478 301.61v-61.671c-0.546 0.061-1.101 0.148-1.587 0.176-0.665 0.08-1.311 0.114-1.988 0.179-0.63 0.083-1.274 0.185-1.889 0.217-0.594 0.033-1.21 0.114-1.788 0.196-0.694 0.085-1.272 0.104-1.869 0.169-0.61 0.063-1.21 0.112-1.821 0.146-0.582 0.066-1.142 0.118-1.706 0.185-0.597 0.033-1.164 0.098-1.737 0.13-0.529 0.082-1.13 0.098-1.678 0.148h-0.197c-0.496 0.086-1.006 0.101-1.457 0.135a52.86 52.86 0 0 1-1.636 0.113c-0.514 0.049-1.026 0.135-1.54 0.135-0.582 0.068-1.082 0.068-1.588 0.117-0.532 0.034-1.045 0.081-1.558 0.114-0.067 0-0.12 0-0.17 0.015-0.096 0-0.111 0-0.215 0.017-0.34 0-0.728 0-1.104 0.05-0.517 0.033-0.981 0.084-1.457 0.12-0.518 0-0.967 0.032-1.491 0.032-0.467 0.083-0.964 0.097-1.44 0.147-0.465 0.015-0.913 0.031-1.376 0.049-0.181 0.033-0.369 0.033-0.531 0.033-0.065 0.017-0.165 0.017-0.246 0.017-0.184 0-0.399 0-0.582 0.017-0.414 0.068-0.891 0.068-1.326 0.085-0.477 0.015-0.893 0.015-1.323 0.099-0.429 0-0.859 0-1.336 0.031-0.401 0-0.832 0.048-1.23 0.048-0.381 0.033-0.712 0.033-1.059 0.033-0.083 0-0.153 0-0.179 0.033h-0.254c-0.346 0-0.693 0.034-1.056 0.053-0.383 0-0.798 0.033-1.128 0.033-0.278 0-0.481 0.018-0.694 0.018-0.084 0-0.247 0.032-0.348 0.032H245.506c-0.099 0.018-0.2 0.021-0.298 0.03v58.518l22.128-10.026 22.142 10.027z" fill="#FF0000" p-id="4083"></path><path d="M809.658 248.212l13.994 524.706c-1.093 0.197-4.691 0.365-6.441 0.432a79.875 79.875 0 0 1-6.047 0.297c-0.961 0.066-5.598 0.165-6.953 0.165h-11.94c-1.507 0-7.883-0.099-7.883-0.099s9.094 1.061 13.695 1.424c0 0 4.422 0.33 6.51 0.463 0.084 0 5.678 0.365 6.523 0.365 0.148 0 12.219 0.461 12.567 0.461 0.265 0 2.137 0.033 2.137 0.033l-11.992-528.067-4.17-0.18z" fill="#D9D9D9" p-id="4084"></path><path d="M842.311 790.27c-10.192-6.426-16.489-13.811-16.489-13.811s-1.872-0.033-2.137-0.033c-0.349 0-12.419-0.461-12.567-0.461-0.846 0-6.439-0.365-6.523-0.365-2.088-0.133-6.51-0.463-6.51-0.463-4.602-0.363-13.695-1.424-13.695-1.424s6.376 0.099 7.883 0.099h11.94c1.355 0 5.992-0.099 6.953-0.165a79.875 79.875 0 0 0 6.047-0.297c1.75-0.066 5.349-0.234 6.441-0.432 0 0-14.947 0.305-28.855-0.355-13.906-0.664-33.222-2.32-47.208-4.148-12.979-1.698-44.959-6.683-67.561-11.017-1.771-0.341-28.601-7.354-53.843-6.832-25.24 0.521-38.832 2.293-49.838 4.7-11.002 2.41-41.022 11.128-49.805 18.018-8.773 6.886-10.229 8.078-11.72 12.051l-0.087-39.183-2.146-0.059-0.088 39.241c-1.49-3.973-2.945-5.165-11.72-12.051-8.774-6.89-38.803-15.607-49.805-18.018-11.001-2.407-24.598-4.18-49.838-4.7-25.244-0.522-52.063 6.491-53.837 6.832-22.604 4.334-54.587 9.318-67.557 11.017-13.994 1.828-50.836 3.078-51.533 3.18-0.083 0-17.72-0.072-23.031-0.096 0.892 0.123 1.913 0.24 3.033 0.328 1.771 0.13 3.876 0.264 6.06 0.33 2.22 0.066 4.569 0.1 6.973 0.165 2.351 0.032 4.715 0.032 6.951 0.032 1.772 0.035 3.445 0 4.935 0 1.542 0 2.915 0 4.023-0.032 0.745 0 3.826-0.065 3.91-0.065-0.682 0.133-6.841 0.796-6.857 0.796a253.42 253.42 0 0 1-6.902 0.595s-6.805 0.463-7.004 0.463c-0.996 0.064-5.119 0.266-6.146 0.266-0.974 0.1-7.52 0.33-7.52 0.33l-6.985 0.165c-0.514 0.556-8.864 7.626-21.446 15.823-12.581 8.196-20.424 11.335-20.937 11.564l0.091-3.072c-0.332 1.957-0.558 3.286-0.571 3.303h2.91c0.63 0.035 1.393 0.035 2.205 0.035 5.148 0.033 14.023-0.035 25.713-0.432 11.721-0.396 26.247-1.094 42.719-2.45a902.926 902.926 0 0 0 54.541-5.96c19.536-2.782 40.25-6.393 61.23-11.159a276.77 276.77 0 0 1 14.979-2.981c4.873-0.862 9.619-1.456 14.124-2.021 4.635-0.494 9.039-0.826 13.329-1.094 4.274-0.23 8.395-0.33 12.402-0.33 10.645 0.066 20.182 0.896 28.744 2.187 8.509 1.358 16.023 3.181 22.437 5.231 6.474 2.021 11.838 4.273 16.259 6.292 4.354 2.054 7.662 3.976 10.047 5.498 1.375-1.291 3.248-2.485 5.535-3.544a46.774 46.774 0 0 1 7.911-2.813c2.929-0.762 6.212-1.36 9.72-1.757a83.054 83.054 0 0 1 11.008-0.63c3.844 0.033 7.52 0.265 11.044 0.66 3.485 0.5 6.757 1.094 9.72 1.889a52.898 52.898 0 0 1 7.916 2.785c2.252 1.158 4.141 2.314 5.512 3.641 2.371-1.488 5.711-3.377 10.041-5.463a147.827 147.827 0 0 1 16.24-6.229c6.487-1.984 13.971-3.772 22.547-5.064 8.563-1.357 18.201-2.086 28.83-2.086 4.021 0 8.176 0.099 12.433 0.396 4.271 0.267 8.707 0.664 13.297 1.192 4.571 0.53 9.253 1.192 14.138 2.054a261.75 261.75 0 0 1 14.984 3.047c20.894 4.898 41.623 8.607 61.193 11.458 19.553 2.88 38.016 4.868 54.457 6.226 16.458 1.457 31.063 2.251 42.704 2.717 11.703 0.396 20.595 0.594 25.765 0.594h4.72c0.194 0 0.344-0.067 0.378-0.067-0.002-0.001-16.02-7.616-26.211-14.041z" fill="#808080" p-id="4085"></path><path d="M514.98 255.324c-0.096 0.167-0.211 0.337-0.295 0.502-0.102 0.184-0.19 0.382-0.276 0.563-0.332 0.58-0.528 1.177-0.741 1.722a19.116 19.116 0 0 0-1.527-3.261l-0.141-0.208v529.549c0.19 0.38 0.367 0.763 0.502 1.142 0.217-0.527 0.469-1.094 0.78-1.619 0.083-0.168 0.183-0.332 0.284-0.533 0.233-0.33 0.46-0.694 0.743-1.059a0.566 0.566 0 0 1 0.1-0.197c0.086-0.166 0.21-0.267 0.363-0.463 0.062-0.084 0.138-0.178 0.208-0.262V255.324z" fill="#CCCCCC" p-id="4086"></path><path d="M734.451 370.292l-53.449-9.654s-46.533-13.617-80.064-10.14c-33.528 3.476-37.83 8.623-49.764 13.501-0.691 0.285-1.464 0.633-2.293 1.027l-0.014-5.956a49.425 49.425 0 0 1 2.307-1.033c11.934-4.876 16.235-10.025 49.764-13.499 33.531-3.479 80.064 10.138 80.064 10.138l53.449 9.653 30.979 2.981 22.206 0.509 0.157 5.962-22.363-0.509-30.979-2.98zM681.002 318.914l47.934 8.657 0.164 5.989-48.098-8.684s-36.918-10.805-68.677-10.711l-0.014-5.96c31.762-0.098 68.691 10.709 68.691 10.709zM734.451 407.311l-53.449-9.654s-46.533-13.621-80.064-10.144c-33.528 3.48-37.83 8.627-49.764 13.504-0.691 0.282-1.464 0.629-2.293 1.023l-0.014-5.954a44.465 44.465 0 0 1 2.307-1.03c11.934-4.877 16.235-10.023 49.764-13.505 33.531-3.477 80.064 10.146 80.064 10.146l53.449 9.652 30.979 2.98 22.206 0.503 0.157 5.966-22.363-0.51-30.979-2.977zM734.451 444.325l-53.449-9.653s-46.533-13.619-80.064-10.142c-33.528 3.477-37.83 8.626-49.764 13.503a45.67 45.67 0 0 0-2.293 1.025l-0.014-5.956a45.333 45.333 0 0 1 2.307-1.03c11.934-4.876 16.235-10.025 49.764-13.502 33.531-3.475 80.064 10.143 80.064 10.143l53.449 9.651 30.979 2.981 22.206 0.507 0.157 5.963-22.363-0.508-30.979-2.982zM734.451 481.343l-53.449-9.653s-46.533-13.62-80.064-10.142c-33.528 3.477-37.83 8.625-49.764 13.5-0.691 0.284-1.464 0.632-2.293 1.025l-0.014-5.955a47.252 47.252 0 0 1 2.307-1.031c11.934-4.876 16.235-10.025 49.764-13.502 33.531-3.476 80.064 10.143 80.064 10.143l53.449 9.654 30.979 2.98 22.206 0.505 0.157 5.964-22.363-0.508-30.979-2.98zM734.451 518.359l-53.449-9.654s-46.533-13.619-80.064-10.143c-33.528 3.479-37.83 8.626-49.764 13.504-0.691 0.282-1.464 0.629-2.293 1.023l-0.014-5.955a44.394 44.394 0 0 1 2.307-1.029c11.934-4.878 16.235-10.025 49.764-13.503 33.531-3.477 80.064 10.142 80.064 10.142l53.449 9.653 30.979 2.98 22.206 0.509 0.157 5.961-22.363-0.508-30.979-2.98zM734.451 592.391l-53.449-9.653s-46.533-13.618-80.064-10.142c-33.528 3.478-37.83 8.625-49.764 13.502a48.48 48.48 0 0 0-2.293 1.024l-0.014-5.954a45.333 45.333 0 0 1 2.307-1.03c11.934-4.877 16.235-10.025 49.764-13.503 33.531-3.478 80.064 10.142 80.064 10.142l53.449 9.653 30.979 2.98 22.206 0.506 0.157 5.965-22.363-0.509-30.979-2.981zM734.451 629.407l-53.449-9.653s-46.533-13.618-80.064-10.143c-33.528 3.479-37.83 8.626-49.764 13.504-0.691 0.282-1.464 0.629-2.293 1.023l-0.014-5.955a46.234 46.234 0 0 1 2.307-1.03c11.934-4.878 16.235-10.024 49.764-13.502 33.531-3.478 80.064 10.142 80.064 10.142l53.449 9.653 30.979 2.98 22.206 0.508 0.157 5.963-22.363-0.51-30.979-2.98zM734.451 666.424l-53.449-9.653s-46.533-13.618-80.064-10.142c-33.528 3.477-37.83 8.626-49.764 13.501a50.71 50.71 0 0 0-2.293 1.025l-0.014-5.956a48.15 48.15 0 0 1 2.307-1.03c11.934-4.876 16.235-10.025 49.764-13.5 33.531-3.479 80.064 10.141 80.064 10.141l53.449 9.654 30.979 2.979 22.206 0.505 0.157 5.963-22.363-0.507-30.979-2.98zM734.451 703.441l-53.449-9.654s-46.533-13.619-80.064-10.142c-33.528 3.479-37.83 8.625-49.764 13.504a45.44 45.44 0 0 0-2.293 1.022l-0.014-5.955a43.492 43.492 0 0 1 2.307-1.028c11.934-4.878 16.235-10.026 49.764-13.505 33.531-3.477 80.064 10.143 80.064 10.143l53.449 9.652 30.979 2.98 22.206 0.505 0.157 5.966-22.363-0.51-30.979-2.978zM734.451 555.375l-53.449-9.652s-46.533-13.619-80.064-10.142c-33.528 3.476-37.83 8.623-49.764 13.502-0.691 0.281-1.464 0.63-2.293 1.022l-0.014-5.954a45.333 45.333 0 0 1 2.307-1.03c11.934-4.878 16.235-10.026 49.764-13.502 33.531-3.477 80.064 10.142 80.064 10.142l53.449 9.652 30.979 2.98 22.206 0.507 0.157 5.965-22.363-0.51-30.979-2.98z" fill="#B3B3B3" p-id="4087"></path></svg>